# This file uses inches as units for non-parametric coordinates.

mtllib Texture Hammer.mtl
g default
v 1.270000 -0.130086 1.270000
v 1.270000 -0.130086 -1.270000
v 1.270000 24.357988 1.270000
v 1.270000 24.357988 -1.270000
v -1.270000 24.357988 1.270000
v -1.270000 24.357988 -1.270000
v -1.270000 -0.130086 1.270000
v -1.270000 -0.130086 -1.270000
v 0.873294 25.085312 0.928215
v 0.873294 25.085312 -0.928215
v -0.873294 25.085312 -0.928215
v -0.873294 25.085312 0.928215
v 0.873294 37.398590 0.928215
v 0.873294 37.398590 -0.928215
v -0.873294 37.398590 -0.928215
v -0.873294 37.398590 0.928215
v -1.564411 -0.130086 0.000000
v 1.564411 -0.130086 0.000000
v 1.564411 24.357988 0.000000
v 1.075740 25.085312 0.000000
v 1.075740 37.398590 0.000000
v -1.075740 37.398590 0.000000
v -1.075740 25.085312 0.000000
v -1.564411 24.357988 0.000000
v -0.000000 -0.130086 -1.478668
v -0.000001 -0.130086 -0.000003
v -0.000000 -0.130086 1.478664
v -0.000000 24.357988 1.478664
v -0.000000 25.085312 1.080722
v -0.000000 37.398590 1.080722
v -0.000000 37.398590 -1.080726
v -0.000000 25.085312 -1.080726
v -0.000000 24.357988 -1.478668
v 0.701673 36.326759 0.851994
v -0.000000 36.326759 0.974530
v -0.701673 36.326759 0.851994
v -0.864335 36.326759 0.000000
v -0.701673 36.326759 -0.851994
v -0.000000 36.326759 -0.974533
v 0.701673 36.326759 -0.851994
v 0.864335 36.326759 0.000000
v 1.270000 38.250671 1.270000
v 1.270000 38.250671 -1.270000
v 1.270000 40.790672 1.270000
v 1.270000 40.790672 -1.270000
v -1.270000 40.790672 1.270000
v -1.270000 40.790672 -1.270000
v -1.270000 38.250671 1.270000
v -1.270000 38.250671 -1.270000
v -0.783167 38.737503 -2.494269
v 0.783167 38.737503 -2.494269
v -0.783167 40.303837 -2.494269
v 0.783167 40.303837 -2.494269
v -0.783167 38.737503 2.494269
v 0.783167 38.737503 2.494269
v 0.783167 40.303837 2.494269
v -0.783167 40.303837 2.494269
v -0.783167 38.737503 -3.733674
v 0.783167 38.737503 -3.733674
v -0.783167 40.303837 -3.733674
v 0.783167 40.303837 -3.733674
v -0.783167 38.737503 3.733674
v 0.783167 38.737503 3.733674
v 0.783167 40.303837 3.733674
v -0.783167 40.303837 3.733674
v -1.801283 37.719383 -4.094835
v 1.801283 37.719383 -4.094835
v -1.801283 41.321949 -4.094835
v 1.801283 41.321949 -4.094835
v -1.801283 37.719383 4.094835
v 1.801283 37.719383 4.094835
v 1.801283 41.321949 4.094835
v -1.801283 41.321949 4.094835
v -1.801283 37.719383 -5.891658
v 1.801283 37.719383 -5.891658
v -1.801283 41.321949 -5.891658
v 1.801283 41.321949 -5.891658
v -1.801283 37.719383 5.891658
v 1.801283 37.719383 5.891658
v 1.801283 41.321949 5.891658
v -1.801283 41.321949 5.891658
v 2.008423 39.520668 -5.891658
v 2.008423 39.520668 -4.094835
v 0.873228 39.520668 -3.733674
v 0.873228 39.520668 -2.494269
v 1.416045 39.520672 -1.270000
v 1.416045 39.520672 1.270000
v 0.873228 39.520668 2.494269
v 0.873228 39.520668 3.733674
v 2.008423 39.520668 4.094835
v 2.008423 39.520668 5.891658
v -2.008423 39.520668 5.891658
v -2.008423 39.520668 4.094835
v -0.873228 39.520668 3.733674
v -0.873228 39.520668 2.494269
v -1.416045 39.520672 1.270000
v -1.416045 39.520672 -1.270000
v -0.873228 39.520668 -2.494269
v -0.873228 39.520668 -3.733674
v -2.008423 39.520668 -4.094835
v -2.008423 39.520668 -5.891658
v 0.000000 41.752186 -4.094835
v 0.000000 40.490898 -3.733674
v 0.000000 40.490898 -2.494269
v 0.000000 41.094013 -1.270000
v 0.000000 41.094013 1.270000
v 0.000000 40.490898 2.494269
v 0.000000 40.490898 3.733674
v 0.000000 41.752186 4.094835
v 0.000000 41.752186 5.891658
v 0.000000 39.520668 5.891658
v 0.000000 37.289146 5.891658
v 0.000000 37.289146 4.094835
v 0.000000 38.550446 3.733674
v 0.000000 38.550446 2.494269
v 0.000000 37.947334 1.270000
v 0.000000 37.947334 -1.270000
v 0.000000 38.550446 -2.494269
v 0.000000 38.550446 -3.733674
v 0.000000 37.289146 -4.094835
v 0.000000 37.289146 -5.891658
v 0.000000 39.520668 -5.891658
v 0.000000 41.752186 -5.891658
v 1.365486 41.019928 0.000000
v 0.000000 41.378025 0.000000
v -1.365486 41.019928 0.000000
v -1.522511 39.520672 0.000000
v -1.365486 38.021416 0.000000
v 1.365486 38.021416 0.000000
v 1.522511 39.520672 0.000000
vt 0.249865 0.053327
vt 0.286307 0.053327
vt 0.286307 0.575398
vt 0.249865 0.575398
vt 0.783519 0.566509
vt 0.747077 0.566509
vt 0.747077 0.044438
vt 0.783519 0.044438
vt 0.286307 0.053327
vt 0.243878 0.053327
vt 0.328737 0.575398
vt 0.704648 0.044438
vt 0.710635 0.044438
vt 0.710635 0.566509
vt 0.243878 0.575398
vt 0.286307 0.590904
vt 0.259673 0.590904
vt 0.720443 0.582015
vt 0.716066 0.582015
vt 0.773712 0.582015
vt 0.747077 0.582015
vt 0.255297 0.590904
vt 0.286307 0.830565
vt 0.261860 0.830565
vt 0.722630 0.821676
vt 0.314271 0.830565
vt 0.771525 0.821676
vt 0.747077 0.821676
vt 0.775041 0.821676
vt 0.322749 0.053327
vt 0.322749 0.575398
vt 0.312942 0.590904
vt 0.310755 0.830565
vt 0.255297 0.853416
vt 0.259673 0.853416
vt 0.773712 0.844526
vt 0.747077 0.844526
vt 0.720443 0.844526
vt 0.716066 0.844526
vt 0.312942 0.853416
vt 0.286307 0.853416
vt 0.249865 0.871582
vt 0.286307 0.866694
vt 0.286307 0.898658
vt 0.249865 0.898658
vt 0.249865 0.925733
vt 0.286307 0.930621
vt 0.747077 0.929366
vt 0.249865 0.932200
vt 0.783519 0.889768
vt 0.747077 0.889768
vt 0.747077 0.857805
vt 0.783519 0.862692
vt 0.455365 0.860255
vt 0.484400 0.863324
vt 0.525231 0.848936
vt 0.531210 0.895747
vt 0.916135 0.842193
vt 0.484399 0.901726
vt 0.064458 0.857828
vt 0.107594 0.861489
vt 0.322749 0.871582
vt 0.322749 0.865115
vt 0.675506 0.869083
vt 0.357879 0.881961
vt 0.710635 0.862692
vt 0.710635 0.889768
vt 0.675506 0.889768
vt 0.675506 0.873071
vt 0.710635 0.923311
vt 0.322749 0.925733
vt 0.357879 0.915354
vt 0.675506 0.910452
vt 0.322749 0.898658
vt 0.357879 0.898658
vt 0.783519 0.856225
vt 0.214736 0.881961
vt 0.818649 0.869083
vt 0.214736 0.898658
vt 0.818649 0.910452
vt 0.214736 0.915354
vt 0.818649 0.873071
vt 0.818649 0.889768
vt 0.639942 0.869083
vt 0.393443 0.881961
vt 0.639942 0.889768
vt 0.639942 0.873071
vt 0.393443 0.915354
vt 0.639942 0.910452
vt 0.393443 0.898658
vt 0.179172 0.881961
vt 0.854213 0.869083
vt 0.179172 0.898658
vt 0.854213 0.910452
vt 0.179172 0.915354
vt 0.854213 0.873071
vt 0.854213 0.889768
vt 0.629578 0.842193
vt 0.403806 0.860255
vt 0.629578 0.889768
vt 0.629578 0.851365
vt 0.403806 0.937060
vt 0.403806 0.946232
vt 0.403806 0.898658
vt 0.168808 0.860255
vt 0.864576 0.842193
vt 0.168808 0.898658
vt 0.864576 0.937342
vt 0.168808 0.937060
vt 0.864576 0.851365
vt 0.864576 0.889768
vt 0.117250 0.898658
vt 0.578020 0.851365
vt 0.578020 0.937342
vt 0.455365 0.937060
vt 0.070439 0.904639
vt 0.117250 0.937060
vt 0.076420 0.951449
vt 0.537189 0.942558
vt 0.864576 0.928170
vt 0.494053 0.938895
vt 0.854213 0.906465
vt 0.818649 0.906465
vt 0.783519 0.916844
vt 0.747077 0.921731
vt 0.710635 0.916844
vt 0.675506 0.906465
vt 0.639942 0.906465
vt 0.629578 0.928170
vt 0.578019 0.928170
vt 0.778088 0.844526
vt 0.249865 0.865115
vt 0.317318 0.853416
vt 0.710635 0.856225
vt 0.286307 0.938255
vt 0.783519 0.923311
vt 0.023629 0.910619
vt 0.629578 0.937342
vt 0.033284 0.947788
vt 0.455365 0.851083
vt 0.403806 0.851083
vt 0.393443 0.877973
vt 0.357879 0.877973
vt 0.214736 0.877973
vt 0.179172 0.877973
vt 0.168808 0.851083
vt 0.023629 0.872217
vt 0.568366 0.852599
vt 0.117250 0.946232
vt 0.168808 0.946232
vt 0.179172 0.919342
vt 0.214736 0.919342
vt 0.322749 0.932200
vt 0.357879 0.919342
vt 0.393443 0.919342
vt 0.719113 0.821676
vt 0.317318 0.590904
vt 0.258344 0.830565
vt 0.704648 0.566509
vt 0.328737 0.053327
vt 0.778088 0.582015
vt 0.789507 0.566509
vt 0.789507 0.044438
vt 0.747077 0.044438
vt 0.578020 0.889768
vt 0.117250 0.851083
vt 0.117250 0.860255
vt 0.916135 0.937342
vt 0.916135 0.928170
vt 0.916135 0.889768
vt 0.916135 0.851365
vt 0.455365 0.898658
vt 0.455365 0.946232
vt 0.578020 0.842193
vn 0.974167 0.000000 0.225831
vn 1.000000 0.000000 0.000000
vn 0.999883 0.015280 0.000000
vn 0.974105 0.013385 0.225699
vn -0.974105 0.013385 0.225699
vn -0.999883 0.015280 0.000000
vn -1.000000 0.000000 0.000000
vn -0.974167 0.000000 0.225831
vn 0.000000 -1.000000 0.000000
vn 0.000000 -1.000000 0.000000
vn 0.000000 -1.000000 0.000000
vn -0.000000 -1.000000 0.000000
vn 0.000000 0.012899 -0.999917
vn 0.000000 0.000000 -1.000000
vn -0.162131 0.000000 -0.986769
vn -0.162198 0.010164 -0.986706
vn -0.162128 0.000000 0.986770
vn 0.000000 0.000000 1.000000
vn 0.000000 0.012899 0.999917
vn -0.162195 0.010164 0.986706
vn 0.997640 0.068663 0.000000
vn 0.976747 0.071600 0.202088
vn -0.171118 0.062524 -0.983265
vn -0.000000 0.055634 -0.998451
vn -0.976747 0.071600 0.202088
vn -0.997640 0.068663 -0.000000
vn 0.000000 0.055634 0.998451
vn -0.171114 0.062524 0.983265
vn 1.000000 -0.000336 0.000000
vn 0.979609 -0.000356 0.200911
vn -0.172035 -0.000692 -0.985091
vn -0.000000 -0.000084 -1.000000
vn -0.979609 -0.000356 0.200911
vn -1.000000 -0.000336 -0.000000
vn 0.000000 -0.000084 1.000000
vn -0.172031 -0.000692 0.985091
vn -0.000000 -1.000000 0.000000
vn 0.000000 -1.000000 0.000000
vn 0.974167 0.000000 -0.225831
vn 0.974105 0.013385 -0.225699
vn 0.976747 0.071600 -0.202088
vn 0.979610 -0.000356 -0.200911
vn -0.976747 0.071600 -0.202088
vn -0.979609 -0.000356 -0.200911
vn -0.974105 0.013385 -0.225699
vn -0.974167 0.000000 -0.225831
vn 0.000000 -1.000000 0.000000
vn -0.000000 -1.000000 0.000000
vn -0.000000 -1.000000 0.000000
vn 0.162128 0.000000 0.986770
vn 0.162195 0.010164 0.986706
vn 0.171114 0.062524 0.983265
vn 0.172031 -0.000692 0.985091
vn 0.171118 0.062524 -0.983265
vn 0.172035 -0.000692 -0.985091
vn 0.162198 0.010164 -0.986706
vn 0.162131 0.000000 -0.986769
vn -0.000000 -0.098593 0.995128
vn 0.171217 -0.097137 0.980433
vn -0.171217 -0.097137 0.980433
vn -0.963747 -0.179229 0.197658
vn -0.983144 -0.182836 0.000000
vn -0.963747 -0.179228 -0.197657
vn -0.171222 -0.097138 -0.980432
vn 0.000000 -0.098594 -0.995128
vn 0.171221 -0.097138 -0.980432
vn 0.983144 -0.182836 0.000000
vn 0.963747 -0.179228 -0.197657
vn 0.963747 -0.179229 0.197658
vn 0.972852 -0.108314 0.204517
vn 0.994065 -0.108791 0.000000
vn 1.000000 0.000000 -0.000000
vn 0.973730 0.000000 0.227706
vn 0.228523 0.927610 0.295496
vn 0.243425 0.969920 0.000000
vn 0.000000 1.000000 0.000000
vn -0.000000 0.950955 0.309331
vn -0.973730 0.000000 0.227706
vn -1.000000 0.000000 -0.000000
vn -0.994065 -0.108791 0.000000
vn -0.972852 -0.108314 0.204517
vn 0.000000 0.000000 -1.000000
vn 0.000000 0.000000 -1.000000
vn 0.000000 0.000000 -1.000000
vn 0.000000 0.000000 -1.000000
vn 0.000000 0.000000 1.000000
vn 0.000000 0.000000 1.000000
vn 0.000000 0.000000 1.000000
vn 0.000000 0.000000 1.000000
vn 0.209504 -0.877149 -0.432109
vn 0.000000 -0.897056 -0.441916
vn 0.000000 -0.961552 -0.274624
vn 0.223230 -0.934612 -0.276890
vn -0.972852 -0.108314 -0.204517
vn -0.973730 0.000000 -0.227706
vn -0.969378 -0.000000 -0.245574
vn -0.959651 -0.110356 -0.258635
vn 0.000000 0.950955 -0.309331
vn 0.228523 0.927610 -0.295496
vn 0.223233 0.934611 -0.276892
vn 0.000000 0.961551 -0.274627
vn 0.973730 0.000000 -0.227706
vn 0.972852 -0.108314 -0.204517
vn 0.959651 -0.110356 -0.258635
vn 0.969378 -0.000000 -0.245574
vn 0.000000 -0.897056 0.441916
vn 0.209504 -0.877149 0.432109
vn 0.223230 -0.934612 0.276890
vn 0.000000 -0.961552 0.274624
vn 0.969378 -0.000000 0.245574
vn 0.959651 -0.110356 0.258635
vn 0.000000 0.961551 0.274627
vn 0.223233 0.934611 0.276892
vn -0.959651 -0.110356 0.258635
vn -0.969378 -0.000000 0.245574
vn 0.000000 -1.000000 0.000000
vn 0.232315 -0.972641 0.000000
vn -1.000000 -0.000000 0.000000
vn -0.993453 -0.114243 0.000000
vn 0.232319 0.972640 0.000000
vn 0.000000 1.000000 0.000000
vn 0.993453 -0.114243 0.000000
vn 1.000000 -0.000000 0.000000
vn 0.232315 -0.972641 0.000000
vn 0.000000 -1.000000 0.000000
vn 1.000000 -0.000000 0.000000
vn 0.993453 -0.114243 0.000000
vn 0.000000 1.000000 0.000000
vn 0.232319 0.972640 0.000000
vn -0.993453 -0.114243 0.000000
vn -1.000000 -0.000000 0.000000
vn 0.184272 -0.159751 0.969806
vn -0.000000 -0.275278 0.961365
vn -0.000000 -0.275278 0.961365
vn 0.174049 -0.170025 0.969948
vn -0.184272 -0.159751 0.969806
vn -0.303175 -0.000000 0.952935
vn -0.303175 -0.000000 0.952935
vn -0.174049 -0.170025 0.969948
vn 0.000000 0.275280 0.961364
vn 0.184274 0.159752 0.969805
vn 0.174050 0.170025 0.969947
vn 0.000000 0.275280 0.961364
vn 0.303175 -0.000000 0.952935
vn 0.303175 0.000000 0.952935
vn 0.000000 -0.275278 -0.961365
vn 0.184272 -0.159751 -0.969806
vn 0.174049 -0.170025 -0.969948
vn 0.000000 -0.275278 -0.961365
vn 0.303175 -0.000000 -0.952935
vn 0.303175 -0.000000 -0.952935
vn 0.184274 0.159752 -0.969806
vn 0.000000 0.275280 -0.961364
vn 0.000000 0.275280 -0.961364
vn 0.174050 0.170026 -0.969947
vn -0.303175 -0.000000 -0.952935
vn -0.184272 -0.159751 -0.969806
vn -0.174049 -0.170025 -0.969948
vn -0.303175 0.000000 -0.952935
vn 0.232317 -0.972640 0.000000
vn 0.000000 -1.000000 0.000000
vn 0.000000 -1.000000 0.000000
vn 0.232317 -0.972640 0.000000
vn -0.993453 -0.114243 0.000000
vn -1.000000 0.000000 -0.000000
vn -1.000000 0.000000 -0.000000
vn -0.993453 -0.114243 0.000000
vn 0.000000 1.000000 0.000000
vn 0.000000 1.000000 0.000000
vn 0.232317 0.972640 0.000000
vn 0.232317 0.972640 0.000000
vn 1.000000 0.000000 0.000000
vn 0.993453 -0.114243 0.000000
vn 0.993453 -0.114243 0.000000
vn 1.000000 0.000000 0.000000
vn 0.000000 -1.000000 0.000000
vn 0.232317 -0.972640 0.000000
vn 0.232317 -0.972640 0.000000
vn 0.000000 -1.000000 0.000000
vn 0.993453 -0.114243 0.000000
vn 1.000000 0.000000 0.000000
vn 1.000000 0.000000 0.000000
vn 0.993453 -0.114243 0.000000
vn 0.232317 0.972640 0.000000
vn 0.000000 1.000000 0.000000
vn 0.000000 1.000000 0.000000
vn 0.232317 0.972640 0.000000
vn -1.000000 0.000000 -0.000000
vn -0.993453 -0.114243 0.000000
vn -0.993453 -0.114243 0.000000
vn -1.000000 0.000000 -0.000000
vn 0.993453 0.114243 0.000000
vn 0.993453 0.114243 0.000000
vn 0.959651 0.110355 -0.258635
vn 0.993453 0.114243 0.000000
vn 0.972852 0.108314 -0.204517
vn 0.994065 0.108791 0.000000
vn 0.972852 0.108314 0.204517
vn 0.959651 0.110355 0.258635
vn 0.993453 0.114243 0.000000
vn 0.993453 0.114243 0.000000
vn 0.993453 0.114243 0.000000
vn 0.000000 0.000000 1.000000
vn 0.000000 -0.000000 1.000000
vn -0.993453 0.114243 -0.000000
vn -0.993453 0.114243 -0.000000
vn -0.184274 0.159752 -0.969805
vn -0.174050 0.170025 -0.969947
vn -0.959651 0.110355 0.258635
vn -0.993453 0.114243 -0.000000
vn -0.972852 0.108314 0.204517
vn -0.994065 0.108791 -0.000000
vn -0.972852 0.108314 -0.204517
vn -0.959651 0.110355 -0.258635
vn -0.993453 0.114243 -0.000000
vn -0.184274 0.159752 0.969806
vn -0.174050 0.170026 0.969947
vn -0.993453 0.114243 -0.000000
vn -0.993453 0.114243 -0.000000
vn 0.000000 -0.000000 -1.000000
vn 0.000000 -0.000000 -1.000000
vn -0.223233 0.934611 -0.276892
vn -0.232319 0.972640 -0.000000
vn -0.228523 0.927610 -0.295496
vn -0.243425 0.969920 -0.000000
vn -0.228523 0.927610 0.295496
vn -0.223233 0.934611 0.276892
vn -0.232319 0.972640 -0.000000
vn -0.232317 0.972640 -0.000000
vn -0.232317 0.972640 -0.000000
vn 0.000000 0.000000 1.000000
vn 0.000000 -0.000000 1.000000
vn 0.000000 0.000000 1.000000
vn -0.232317 -0.972640 0.000000
vn -0.232317 -0.972640 0.000000
vn -0.223230 -0.934612 0.276890
vn -0.232315 -0.972641 0.000000
vn -0.209504 -0.877149 0.432109
vn -0.209504 -0.877149 -0.432109
vn -0.223230 -0.934612 -0.276890
vn -0.232315 -0.972641 0.000000
vn -0.232317 -0.972640 0.000000
vn -0.232317 -0.972640 0.000000
vn 0.000000 0.000000 -1.000000
vn 0.000000 0.000000 -1.000000
vn 0.000000 0.000000 -1.000000
vn -0.232317 0.972640 -0.000000
vn -0.232317 0.972640 -0.000000
vn 0.878817 -0.447436 -0.165774
vn 0.878817 -0.447436 -0.165774
vn 0.878817 -0.447436 -0.165774
vn 0.878817 -0.447436 -0.165774
vn 0.119196 -0.381295 -0.916737
vn 0.119196 -0.381295 -0.916737
vn 0.119196 -0.381295 -0.916737
vn 0.119196 -0.381295 -0.916737
vn -0.119196 -0.381295 -0.916737
vn -0.119196 -0.381295 -0.916737
vn -0.119196 -0.381295 -0.916737
vn -0.119196 -0.381295 -0.916737
vn -0.878818 -0.447436 -0.165774
vn -0.878818 -0.447436 -0.165774
vn -0.878818 -0.447436 -0.165774
vn -0.878818 -0.447436 -0.165774
vn -0.878818 -0.447435 0.165773
vn -0.878818 -0.447435 0.165773
vn -0.878818 -0.447435 0.165773
vn -0.878818 -0.447435 0.165773
vn -0.119195 -0.381296 0.916736
vn -0.119195 -0.381296 0.916736
vn -0.119195 -0.381296 0.916736
vn -0.119195 -0.381296 0.916736
vn 0.119195 -0.381296 0.916736
vn 0.119195 -0.381296 0.916736
vn 0.119195 -0.381296 0.916736
vn 0.119195 -0.381296 0.916736
vn 0.878818 -0.447435 0.165774
vn 0.878818 -0.447435 0.165774
vn 0.878818 -0.447435 0.165774
vn 0.878818 -0.447435 0.165774
s 1
g Hammer_Mesh
usemtl blinn2SG
f 1/1/1 18/2/2 19/3/3 3/4/4
s 2
f 5/5/5 24/6/6 17/7/7 7/8/8
s 3
f 7/8/9 17/7/10 26/164/11 27/163/12
s 4
f 33/159/13 25/12/14 8/13/15 6/14/16
s 5
f 7/8/17 27/163/18 28/162/19 5/5/20
s 1
f 3/4/4 19/3/3 20/16/21 9/17/22
s 4
f 33/159/13 6/14/16 11/18/23 32/19/24
s 2
f 24/6/6 5/5/5 12/20/25 23/21/26
s 5
f 5/5/20 28/162/19 29/161/27 12/20/28
s 1
usemtl blinn1SG
f 9/17/22 20/16/21 41/23/29 34/24/30
s 4
f 32/19/24 11/18/23 38/25/31 39/156/32
s 2
f 23/21/26 12/20/25 36/27/33 37/28/34
s 5
f 12/20/28 29/161/27 35/29/35 36/27/36
s 3
usemtl blinn2SG
f 17/7/10 8/13/37 25/12/38 26/164/11
s 1
f 19/3/3 18/2/2 2/30/39 4/31/40
f 20/16/21 19/3/3 4/31/40 10/32/41
usemtl blinn1SG
f 41/23/29 20/16/21 10/32/41 40/33/42
s 2
f 11/18/43 23/21/26 37/28/34 38/25/44
usemtl blinn2SG
f 6/14/45 24/6/6 23/21/26 11/18/43
f 17/7/7 24/6/6 6/14/45 8/13/46
s 3
f 26/9/11 25/160/38 2/30/47 18/2/48
f 27/10/12 26/9/11 18/2/48 1/1/49
s 5
f 28/15/19 27/10/18 1/1/50 3/4/51
f 29/22/27 28/15/19 3/4/51 9/17/52
usemtl blinn1SG
f 35/158/35 29/22/27 9/17/52 34/24/53
s 4
f 10/32/54 32/157/24 39/26/32 40/33/55
usemtl blinn2SG
f 4/31/56 33/11/13 32/157/24 10/32/54
f 2/30/57 25/160/14 33/11/13 4/31/56
s 5
usemtl blinn1SG
f 30/34/58 35/158/35 34/24/53 13/35/59
f 36/27/36 35/29/35 30/131/58 16/36/60
s 2
f 37/28/34 36/27/33 16/36/61 22/37/62
f 38/25/44 37/28/34 22/37/62 15/38/63
s 4
f 39/156/32 38/25/31 15/38/64 31/39/65
f 40/33/55 39/26/32 31/133/65 14/40/66
s 1
f 21/41/67 41/23/29 40/33/42 14/40/68
f 34/24/30 41/23/29 21/41/67 13/35/69
s 6
usemtl blinn3SG
f 42/42/70 129/43/71 130/44/72 87/45/73
s 7
f 44/46/74 124/47/75 125/135/76 106/49/77
s 8
f 96/50/78 127/51/79 128/52/80 48/53/81
s 9
f 75/55/82 121/56/83 122/57/84 82/59/85
s 10
f 112/60/86 79/61/87 91/112/88 111/116/89
s 11
f 43/62/90 117/63/91 118/143/92 51/65/93
s 8
f 49/66/94 97/67/95 98/68/96 50/69/97
s 7
f 105/153/98 45/71/99 53/72/100 104/154/101
s 6
f 86/74/102 43/62/103 51/65/104 85/75/105
s 12
f 116/132/106 42/42/107 55/77/108 115/144/109
s 6
f 42/42/70 87/45/73 88/79/110 55/77/111
s 7
f 44/46/74 106/49/77 107/152/112 56/81/113
s 8
f 96/50/78 48/53/81 54/82/114 95/83/115
s 11
f 51/65/93 118/143/92 119/142/116 59/85/117
s 8
f 50/69/97 98/68/96 99/86/118 58/87/119
s 7
f 104/154/101 53/72/100 61/88/120 103/155/121
s 6
f 85/75/105 51/65/104 59/85/122 84/90/123
s 12
f 115/144/109 55/77/108 63/91/124 114/145/125
s 6
f 55/77/111 88/79/110 89/93/126 63/91/127
s 7
f 56/81/113 107/152/112 108/151/128 64/95/129
s 8
f 95/83/115 54/82/114 62/96/130 94/97/131
s 13
f 59/85/132 119/142/133 120/141/134 67/99/135
f 58/87/136 99/86/137 100/100/138 66/101/139
f 103/155/140 61/88/141 69/102/142 102/103/143
f 84/90/144 59/85/132 67/99/135 83/104/145
s 16
f 114/145/146 63/91/147 71/105/148 113/146/149
f 63/91/147 89/93/150 90/107/151 71/105/148
f 64/95/152 108/151/153 109/150/154 72/109/155
f 94/97/156 62/96/157 70/110/158 93/111/159
s 18
f 67/99/160 120/141/161 121/140/162 75/54/163
s 19
f 66/101/164 100/100/165 101/165/166 74/113/167
s 20
f 123/173/168 102/103/169 69/102/170 77/115/171
s 21
f 83/104/172 67/99/173 75/54/174 82/172/175
s 22
f 113/146/176 71/105/177 79/167/178 112/166/179
s 23
f 71/105/180 90/107/181 91/112/182 79/167/183
s 24
f 72/109/184 109/150/185 110/149/186 80/117/187
s 25
f 93/111/188 70/110/189 78/171/190 92/170/191
s 21
f 69/102/192 83/104/172 82/172/175 77/115/193
s 13
f 61/88/141 84/90/144 83/104/145 69/102/142
s 6
f 53/72/194 85/75/105 84/90/123 61/88/195
f 45/71/196 86/74/102 85/75/105 53/72/194
f 87/45/73 130/44/72 124/47/197 44/46/198
f 88/79/110 87/45/73 44/46/198 56/81/199
f 89/93/126 88/79/110 56/81/199 64/95/200
s 16
f 90/107/151 89/93/150 64/95/152 72/109/155
s 23
f 91/112/182 90/107/181 72/109/201 80/117/202
s 10
f 111/116/89 91/112/88 80/117/203 110/118/204
s 25
f 73/120/205 93/111/188 92/170/191 81/169/206
s 16
f 65/122/207 94/97/156 93/111/159 73/120/208
s 8
f 57/123/209 95/83/115 94/97/131 65/122/210
f 46/124/211 96/50/78 95/83/115 57/123/209
f 46/124/211 126/125/212 127/51/79 96/50/78
f 98/68/96 97/67/95 47/126/213 52/127/214
f 99/86/118 98/68/96 52/127/214 60/128/215
s 13
f 100/100/138 99/86/137 60/128/216 68/129/217
s 19
f 101/165/166 100/100/165 68/129/218 76/130/219
s 9
f 82/59/85 122/57/84 123/119/220 77/121/221
s 13
f 60/128/216 103/89/140 102/138/143 68/129/217
s 7
f 52/127/222 104/73/101 103/89/121 60/128/223
f 47/126/224 105/70/98 104/73/101 52/127/222
f 106/136/77 125/48/76 126/125/225 46/124/226
f 107/80/112 106/136/77 46/124/226 57/123/227
f 108/94/128 107/80/112 57/123/227 65/122/228
s 16
f 109/108/154 108/94/153 65/122/207 73/120/208
s 24
f 110/168/186 109/108/185 73/120/229 81/169/230
s 10
f 92/137/231 111/116/89 110/118/204 81/139/232
f 78/147/233 112/60/86 111/116/89 92/137/231
s 22
f 70/110/234 113/106/176 112/58/179 78/171/235
s 16
f 62/96/157 114/92/146 113/106/149 70/110/158
s 12
f 54/82/236 115/78/109 114/92/125 62/96/237
f 48/53/238 116/76/106 115/78/109 54/82/236
s 11
f 118/64/92 117/134/91 49/66/239 50/69/240
f 119/84/116 118/64/92 50/69/240 58/87/241
s 13
f 120/98/134 119/84/133 58/87/136 66/101/139
s 18
f 121/174/162 120/98/161 66/101/242 74/113/243
s 9
f 122/57/84 121/56/83 74/148/244 101/165/245
f 123/119/220 122/57/84 101/165/245 76/130/246
s 20
f 68/129/247 102/138/169 123/114/168 76/130/248
s 7
f 124/47/75 45/71/99 105/153/98 125/135/76
f 126/125/225 125/48/76 105/70/98 47/126/224
s 8
f 127/51/79 126/125/212 47/126/213 97/67/95
f 128/52/80 127/51/79 97/67/95 49/66/94
s 6
f 130/44/72 129/43/71 43/62/103 86/74/102
f 124/47/197 130/44/72 86/74/102 45/71/196
s off
f 21/41/249 14/40/250 43/62/251 129/43/252
f 14/40/253 31/133/254 117/63/255 43/62/256
f 31/39/257 15/38/258 49/66/259 117/134/260
f 15/38/261 22/37/262 128/52/263 49/66/264
f 22/37/265 16/36/266 48/53/267 128/52/268
f 16/36/269 30/131/270 116/76/271 48/53/272
f 30/34/273 13/35/274 42/42/275 116/132/276
f 13/35/277 21/41/278 129/43/279 42/42/280
